<?xml version="1.0" encoding="UTF-8" standalone="no"?>
<svg
   xmlns:dc="http://purl.org/dc/elements/1.1/"
   xmlns:cc="http://creativecommons.org/ns#"
   xmlns:rdf="http://www.w3.org/1999/02/22-rdf-syntax-ns#"
   xmlns:svg="http://www.w3.org/2000/svg"
   xmlns="http://www.w3.org/2000/svg"
   viewBox="0 0 508.98801 244.36267"
   height="244.36267"
   width="508.98801"
   xml:space="preserve"
   id="svg2"
   version="1.1"><metadata
     id="metadata8"><rdf:RDF><cc:Work
         rdf:about=""><dc:format>image/svg+xml</dc:format><dc:type
           rdf:resource="http://purl.org/dc/dcmitype/StillImage" /></cc:Work></rdf:RDF></metadata><defs
     id="defs6" /><g
     transform="matrix(1.3333333,0,0,-1.3333333,0,244.36267)"
     id="g10"><g
       transform="translate(10.162,70.861)"
       id="g12"><g
         id="g14"><g
           id="g16" /><g
           id="g18"><path
             id="path20"
             style="fill:none;stroke:#000000;stroke-width:0.3985;stroke-linecap:butt;stroke-linejoin:miter;stroke-miterlimit:10;stroke-dasharray:none;stroke-opacity:1"
             d="M 0,92.08391 V 0 h 357.83525" /><g
             transform="rotate(90,-46.041955,46.041955)"
             id="g22"><g
               id="g24"><path
                 id="path26"
                 style="fill:#000000;fill-opacity:1;fill-rule:nonzero;stroke:none"
                 d="M 3.58653,0 C 2.52383,0.19925 0.797,0.797 -0.3985,1.49438 V -1.49438 C 0.797,-0.797 2.52383,-0.19925 3.58653,0" /></g></g><g
             transform="translate(357.83525)"
             id="g28"><g
               id="g30"><path
                 id="path32"
                 style="fill:#000000;fill-opacity:1;fill-rule:nonzero;stroke:none"
                 d="M 3.58653,0 C 2.52383,0.19925 0.797,0.797 -0.3985,1.49438 V -1.49438 C 0.797,-0.797 2.52383,-0.19925 3.58653,0" /></g></g><g
             id="g34"><g
               transform="translate(3.52,92.21)"
               id="g36"><g
                 id="g38"><g
                   transform="translate(-13.682,-163.071)"
                   id="g40"><text
                     id="text44"
                     style="font-variant:normal;font-weight:normal;font-size:9.96259975px;font-family:LMSans10;-inkscape-font-specification:LMSans10-Regular;writing-mode:lr-tb;fill:#000000;fill-opacity:1;fill-rule:nonzero;stroke:none"
                     transform="matrix(1,0,0,-1,13.682,163.071)"><tspan
                       id="tspan42"
                       y="0"
                       x="0 4.4283757 6.8084407 11.236816 15.830571 20.618597 24.216091 26.596157 31.577457">elevation</tspan></text>
<g
                     transform="translate(13.682,163.071)"
                     id="g46" /></g></g><g
                 transform="translate(-3.52,-92.21)"
                 id="g48" /></g></g><path
             id="path50"
             style="fill:none;stroke:#000000;stroke-width:0.3985;stroke-linecap:butt;stroke-linejoin:miter;stroke-miterlimit:10;stroke-dasharray:none;stroke-opacity:1"
             d="m 0,0 c 0,0 4.25545,4.25696 5.88986,5.87039 1.6344,1.61342 4.25546,4.19118 5.88988,5.75817 1.63438,1.56697 4.25545,4.04505 5.88986,5.53561 1.6344,1.49057 4.25546,3.82191 5.88988,5.20732 1.63438,1.38542 4.25545,3.5242 5.88986,4.77781 1.6344,1.25362 4.25546,3.15942 5.88988,4.25747 1.63438,1.09805 4.25545,2.73524 5.88986,3.65668 1.6344,0.92145 4.25546,2.25743 5.88988,2.98452 1.63438,0.7271 4.25544,1.73696 5.88986,2.25591 1.6344,0.51895 4.25546,1.18381 5.88988,1.48447 1.63438,0.30064 4.25544,0.60594 5.88986,0.68254 1.6344,0.07658 4.25546,0.01828 5.88988,-0.13042 1.63438,-0.1487 4.25544,-0.57019 5.88986,-0.94142 1.6344,-0.37123 4.25546,-1.14752 5.88988,-1.73425 1.63438,-0.58675 4.25544,-1.70376 5.88986,-2.49468 1.6344,-0.79091 4.25546,-2.22571 5.88988,-3.20575 1.63438,-0.98006 4.25544,-2.70726 5.88986,-3.8578 1.6344,-1.15055 4.25546,-3.13596 5.88987,-4.43459 1.63439,-1.29863 4.25545,-3.50307 5.88987,-4.92511 1.6344,-1.42203 4.25546,-3.80581 5.88988,-5.32409 1.63438,-1.5183 4.25544,-4.03342 5.88986,-5.61868 1.6344,-1.58526 4.25546,-4.18513 5.88987,-5.80682 1.63439,-1.6217 4.25545,-4.25401 5.88987,-5.88139 1.6344,-1.62736 4.25546,-4.24569 5.88987,-5.8477 1.63439,-1.60201 4.25545,-4.15282 5.88986,-5.69846 1.6344,-1.54567 4.25547,-3.9817 5.88988,-5.44156 1.63439,-1.45984 4.25545,-3.73408 5.88986,-5.08014 1.6344,-1.34606 4.25547,-3.415 5.88988,-4.62147 1.63439,-1.20645 4.25545,-3.03006 5.88986,-4.07386 1.6344,-1.04377 4.25547,-2.58802 5.88988,-3.44906 1.63438,-0.86104 4.25545,-2.09504 5.88986,-2.75679 1.6344,-0.66175 4.25547,-1.56277 5.88988,-2.01259 1.63438,-0.44981 4.25545,-1.00014 5.88986,-1.22949 1.6344,-0.22935 4.25546,-0.41927 5.88988,-0.42367 1.63438,-0.0044 4.25545,0.17115 5.88986,0.39189 1.6344,0.22073 4.25547,0.75764 5.88988,1.199 1.63439,0.44135 4.25545,1.32857 5.88986,1.98211 1.6344,0.65353 4.25546,1.87484 5.88988,2.72822 1.63438,0.85338 4.25545,2.3856 5.88986,3.42245 1.6344,1.03687 4.25546,2.85009 5.88988,4.05049 1.63438,1.20043 4.25544,3.26043 5.88986,4.60137 1.6344,1.34091 4.25546,3.60747 5.88988,5.06326 1.63438,1.45583 4.25544,3.8864 5.88986,5.42925 1.6344,1.54284 4.25546,4.09039 5.88988,5.69067 1.63438,1.60029 4.25544,4.21613 5.88986,5.84316 1.6344,1.62701 4.25546,4.26072 5.88987,5.88334 1.63439,1.62262 4.25545,4.22414 5.88987,5.81136 1.6344,1.58722 4.25546,4.10685 5.88988,5.62838 1.63438,1.52153 4.25545,3.91137 5.88985,5.33775 1.6344,1.42637 4.25547,3.63876 5.88988,4.94262 1.63439,1.30383 4.25545,3.29805 5.88987,4.45471 1.6344,1.15665 4.25546,2.89464 5.88987,3.88179 1.63439,0.98717 4.25545,2.43436 5.88987,3.233 1.6344,0.79865 4.25546,1.92812 5.88987,2.52323 1.63439,0.59511 4.25545,1.38601 5.88987,1.76606 1.63439,0.38006 4.25546,0.8156 5.88987,0.97321 1.63439,0.15762 4.25545,0.23051 5.88986,0.16283 1.6344,-0.06768 4.25547,-0.35901 5.88988,-0.65075 1.63439,-0.29174 4.25545,-0.94163 5.88986,-1.45202 1.6344,-0.51041 4.25547,-1.50763 5.88988,-2.2267 1.63439,-0.71907 5.88986,-2.95598 5.88986,-2.95598" /><g
             id="g52"><g
               transform="translate(56.951,50.31)"
               id="g54"><g
                 id="g56"><g
                   transform="translate(-67.113,-121.171)"
                   id="g58"><text
                     id="text62"
                     style="font-variant:normal;font-weight:normal;font-size:9.96259975px;font-family:LMSans10;-inkscape-font-specification:LMSans10-Regular;writing-mode:lr-tb;fill:#000000;fill-opacity:1;fill-rule:nonzero;stroke:none"
                     transform="matrix(1,0,0,-1,67.113,121.171)"><tspan
                       id="tspan60"
                       y="0"
                       x="0 4.4283757 7.8325963 12.260972 16.079636">crest</tspan></text>
<g
                     transform="translate(67.113,121.171)"
                     id="g64" /></g></g><g
                 transform="translate(-56.951,-50.31)"
                 id="g66" /></g></g><g
             id="g68"><g
               transform="translate(46.324,-13.121)"
               id="g70"><g
                 id="g72"><g
                   transform="translate(-56.486,-57.74)"
                   id="g74"><text
                     id="text78"
                     style="font-variant:normal;font-weight:normal;font-size:9.96259975px;font-family:LMSans10;-inkscape-font-specification:LMSans10-Regular;writing-mode:lr-tb;fill:#000000;fill-opacity:1;fill-rule:nonzero;stroke:none"
                     transform="matrix(1,0,0,-1,56.486,57.74)"><tspan
                       id="tspan76"
                       y="0"
                       x="0 4.7880254 12.703311 17.850986 20.231052 22.611116 26.208612 31.356287 36.503963">amplitude</tspan></text>
<g
                     transform="translate(56.486,57.74)"
                     id="g80" /></g></g><g
                 transform="translate(-46.324,13.121)"
                 id="g82" /></g></g><g
             id="g84"><g
               transform="translate(184.165,-55.641)"
               id="g86"><g
                 id="g88"><g
                   transform="translate(-194.327,-15.22)"
                   id="g90"><text
                     id="text94"
                     style="font-variant:normal;font-weight:normal;font-size:9.96259975px;font-family:LMSans10;-inkscape-font-specification:LMSans10-Regular;writing-mode:lr-tb;fill:#000000;fill-opacity:1;fill-rule:nonzero;stroke:none"
                     transform="matrix(1,0,0,-1,194.327,15.22)"><tspan
                       id="tspan92"
                       y="0"
                       x="0 3.5974948 8.7451706 12.149391 17.130692 22.278366 27.259666">through</tspan></text>
<g
                     transform="translate(194.327,15.22)"
                     id="g96" /></g></g><g
                 transform="translate(-184.165,55.641)"
                 id="g98" /></g></g><g
             id="g100"><g
               transform="translate(172.791,50.658)"
               id="g102"><g
                 id="g104"><g
                   transform="translate(-182.953,-121.519)"
                   id="g106"><text
                     id="text110"
                     style="font-variant:normal;font-weight:normal;font-size:9.96259975px;font-family:LMSans10;-inkscape-font-specification:LMSans10-Regular;writing-mode:lr-tb;fill:#000000;fill-opacity:1;fill-rule:nonzero;stroke:none"
                     transform="matrix(1,0,0,-1,182.953,121.519)"><tspan
                       id="tspan108"
                       y="0"
                       x="0 6.528492 11.316517 15.910273 20.338648 22.718714 27.147089 32.294765 37.276066 40.873558">wavelength</tspan></text>
<text
                     id="text114"
                     style="font-variant:normal;font-weight:normal;font-size:9.96259975px;font-family:LMMathItalic10;-inkscape-font-specification:LMMathItalic10-Regular;writing-mode:lr-tb;fill:#000000;fill-opacity:1;fill-rule:nonzero;stroke:none"
                     transform="matrix(1,0,0,-1,232.296,121.519)"><tspan
                       id="tspan112"
                       y="0"
                       x="0">λ</tspan></text>
<g
                     transform="translate(182.953,121.519)"
                     id="g116" /></g></g><g
                 transform="translate(-172.791,-50.658)"
                 id="g118" /></g></g><g
             id="g120"><g
               id="g122"><path
                 id="path124"
                 style="fill:#000000;fill-opacity:1;fill-rule:nonzero;stroke:#000000;stroke-width:0.3985;stroke-linecap:butt;stroke-linejoin:miter;stroke-miterlimit:10;stroke-dasharray:none;stroke-opacity:1"
                 d="m 68.91603,42.5202 c 0,1.17412 -0.9518,2.12592 -2.12591,2.12592 -1.17414,0 -2.12594,-0.9518 -2.12594,-2.12592 0,-1.17413 0.9518,-2.12593 2.12594,-2.12593 1.17411,0 2.12591,0.9518 2.12591,2.12593 z" /></g><g
               transform="translate(66.789,42.519)"
               id="g126"><g
                 id="g128" /><g
                 transform="translate(-66.789,-42.519)"
                 id="g130" /></g></g><g
             id="g132"><g
               id="g134"><path
                 id="path136"
                 style="fill:#000000;fill-opacity:1;fill-rule:nonzero;stroke:#000000;stroke-width:0.3985;stroke-linecap:butt;stroke-linejoin:miter;stroke-miterlimit:10;stroke-dasharray:none;stroke-opacity:1"
                 d="m 68.91603,0 c 0,1.17412 -0.9518,2.12592 -2.12591,2.12592 -1.17414,0 -2.12594,-0.9518 -2.12594,-2.12592 0,-1.17412 0.9518,-2.12592 2.12594,-2.12592 1.17411,0 2.12591,0.9518 2.12591,2.12592 z" /></g><g
               transform="translate(66.789)"
               id="g138"><g
                 id="g140" /><g
                 transform="translate(-66.789)"
                 id="g142" /></g></g><g
             id="g144"><g
               id="g146"><path
                 id="path148"
                 style="fill:#000000;fill-opacity:1;fill-rule:nonzero;stroke:#000000;stroke-width:0.3985;stroke-linecap:butt;stroke-linejoin:miter;stroke-miterlimit:10;stroke-dasharray:none;stroke-opacity:1"
                 d="m 336.07788,42.5202 c 0,1.17412 -0.9518,2.12592 -2.12591,2.12592 -1.17414,0 -2.12594,-0.9518 -2.12594,-2.12592 0,-1.17413 0.9518,-2.12593 2.12594,-2.12593 1.17411,0 2.12591,0.9518 2.12591,2.12593 z" /></g><g
               transform="translate(333.948,42.519)"
               id="g150"><g
                 id="g152" /><g
                 transform="translate(-333.948,-42.519)"
                 id="g154" /></g></g><g
             id="g156"><g
               id="g158"><path
                 id="path160"
                 style="fill:#000000;fill-opacity:1;fill-rule:nonzero;stroke:#000000;stroke-width:0.3985;stroke-linecap:butt;stroke-linejoin:miter;stroke-miterlimit:10;stroke-dasharray:none;stroke-opacity:1"
                 d="m 202.49696,-42.5202 c 0,1.17413 -0.95179,2.12593 -2.12593,2.12593 -1.17412,0 -2.12591,-0.9518 -2.12591,-2.12593 0,-1.17412 0.95179,-2.12592 2.12591,-2.12592 1.17414,0 2.12593,0.9518 2.12593,2.12592 z" /></g><g
               transform="translate(200.368,-42.52)"
               id="g162"><g
                 id="g164" /><g
                 transform="translate(-200.368,42.52)"
                 id="g166" /></g></g><g
             id="g168"><path
               id="path170"
               style="fill:none;stroke:#000000;stroke-width:0.3985;stroke-linecap:butt;stroke-linejoin:miter;stroke-miterlimit:10;stroke-dasharray:2.98883, 2.98883;stroke-dashoffset:0;stroke-opacity:1"
               d="m 66.79825,42.52539 v 10e-6 H 331.6673" /></g><g
             id="g172"><path
               id="path174"
               style="fill:none;stroke:#000000;stroke-width:0.3985;stroke-linecap:butt;stroke-linejoin:miter;stroke-miterlimit:10;stroke-dasharray:2.98883, 2.98883;stroke-dashoffset:0;stroke-opacity:1"
               d="m 66.7987,2.3254 v 40.19999 h -4.5e-4" /></g></g></g></g></g></svg>